<svg width="22" height="22" viewBox="0 0 22 22" fill="none" xmlns="http://www.w3.org/2000/svg">
<path d="M12.3335 1.66665C12.3335 0.930267 11.7365 0.333313 11.0002 0.333313C10.2638 0.333313 9.66683 0.930267 9.66683 1.66665V9.66665H1.66683C0.93045 9.66665 0.333496 10.2636 0.333496 11C0.333496 11.7364 0.93045 12.3333 1.66683 12.3333H9.66683V20.3333C9.66683 21.0697 10.2638 21.6666 11.0002 21.6666C11.7365 21.6666 12.3335 21.0697 12.3335 20.3333V12.3333H20.3335C21.0699 12.3333 21.6668 11.7364 21.6668 11C21.6668 10.2636 21.0699 9.66665 20.3335 9.66665H12.3335V1.66665Z" fill="white"/>
</svg>
